<?xml version="1.0" encoding="UTF-8" standalone="no"?>
<svg width="243px" height="43px" viewBox="0 0 243 43" version="1.1" xmlns="http://www.w3.org/2000/svg" xmlns:xlink="http://www.w3.org/1999/xlink">
    <!-- Generator: Sketch 41.2 (35397) - http://www.bohemiancoding.com/sketch -->
    <title>Gradle-Buildtool</title>
    <desc>Created with Sketch.</desc>
    <defs></defs>
    <g id="Logos" stroke="none" stroke-width="1" fill="none" fill-rule="evenodd">
        <g id="Gradle-Buildtool">
            <path d="M46.8764467,7.88772959 C45.3200364,5.08928963 42.538267,4.25293158 40.5730047,4.21328173 C38.1617855,4.16464717 36.1814618,5.49994885 36.5560017,6.37654271 C36.6363956,6.56473304 37.0884369,7.5470924 37.3659256,7.95257566 C37.767596,8.5393154 38.4866528,8.08851802 38.7385072,7.95462652 C39.4905793,7.55490518 40.2943191,7.42550602 41.2059822,7.53175982 C42.0774483,7.63332596 43.2351806,8.17045455 44.0118896,9.6627931 C45.8397043,13.1750281 40.1972679,20.4036071 33.1344723,15.3978616 C26.0715771,10.3921161 19.203283,12.0507692 16.0936541,13.059692 C12.9841249,14.0684195 11.5547888,15.0829089 12.7835391,17.4289889 C14.4533587,20.6171889 13.8998775,19.6389313 15.519027,22.2780882 C18.0908346,26.4697421 23.7203042,20.3491129 23.7203042,20.3491129 C19.526654,26.5308771 15.931769,25.0372689 14.5529036,22.8762541 C13.3102888,20.9285282 12.3447638,18.6830377 12.3447638,18.6830377 C1.72319071,22.4290701 4.5969243,38.9663805 4.5969243,38.9663805 L9.87170315,38.9663805 C11.2165558,32.8772955 16.0248305,33.1018153 16.848918,38.9663805 L20.8738008,38.9663805 C24.4333764,27.0763067 33.4552501,38.9663805 33.4552501,38.9663805 L38.701901,38.9663805 C37.2324677,30.8555435 41.6532357,28.3073078 44.4391943,23.5530361 C47.2254521,18.7983738 49.8646868,12.9818572 46.8764467,7.88772959 L46.8764467,7.88772959 Z M33.3433369,23.5472742 C30.5694474,22.6419684 31.5616042,19.8816157 31.5616042,19.8816157 C31.5616042,19.8816157 33.9840944,20.6649445 37.2609946,21.7341234 C37.0723781,22.5903064 35.4423564,24.232455 33.3433369,23.5472742 L33.3433369,23.5472742 Z" id="Fill-9" fill="#02303A"></path>
            <path d="M35.8042288,21.4659498 C35.8871163,22.2300396 35.3025149,22.9172712 34.4983762,23.0008679 C33.6942375,23.0844647 32.9752804,22.5327848 32.8923929,21.7685973 C32.8095053,21.0045075 33.3942065,20.3172758 34.1982455,20.2336791 C35.0023842,20.1500824 35.721441,20.7017623 35.8042288,21.4659498" id="Fill-10" fill="#00303A"></path>
            <path d="M72.236,22.3 L72.236,29.32 C71.3559956,29.9680032 70.418005,30.4419985 69.422,30.742 C68.425995,31.0420015 67.3600057,31.192 66.224,31.192 C64.8079929,31.192 63.5260057,30.9720022 62.378,30.532 C61.2299943,30.0919978 60.2500041,29.4800039 59.438,28.696 C58.6259959,27.9119961 58.0000022,26.9760054 57.56,25.888 C57.1199978,24.7999946 56.9,23.6120064 56.9,22.324 C56.9,21.0199935 57.1119979,19.8240054 57.536,18.736 C57.9600021,17.6479946 58.5619961,16.7120039 59.342,15.928 C60.1220039,15.1439961 61.0679944,14.5360022 62.18,14.104 C63.2920056,13.6719978 64.5399931,13.456 65.924,13.456 C66.6280035,13.456 67.2859969,13.5119994 67.898,13.624 C68.5100031,13.7360006 69.0779974,13.889999 69.602,14.086 C70.1260026,14.282001 70.6039978,14.5199986 71.036,14.8 C71.4680022,15.0800014 71.8639982,15.3879983 72.224,15.724 L71.3,17.188 C71.1559993,17.4200012 70.9680012,17.5619997 70.736,17.614 C70.5039988,17.6660003 70.2520014,17.6080008 69.98,17.44 L69.188,16.984 C68.9239987,16.8319992 68.6300016,16.7000006 68.306,16.588 C67.9819984,16.4759994 67.618002,16.3840004 67.214,16.312 C66.809998,16.2399996 66.3440026,16.204 65.816,16.204 C64.9599957,16.204 64.1860035,16.3479986 63.494,16.636 C62.8019965,16.9240014 62.2120024,17.3359973 61.724,17.872 C61.2359976,18.4080027 60.8600013,19.0519962 60.596,19.804 C60.3319987,20.5560038 60.2,21.3959954 60.2,22.324 C60.2,23.316005 60.3419986,24.2019961 60.626,24.982 C60.9100014,25.7620039 61.3099974,26.4219973 61.826,26.962 C62.3420026,27.5020027 62.9639964,27.9139986 63.692,28.198 C64.4200036,28.4820014 65.2319955,28.624 66.128,28.624 C66.7680032,28.624 67.3399975,28.5560007 67.844,28.42 C68.3480025,28.2839993 68.8399976,28.1000012 69.32,27.868 L69.32,24.724 L67.136,24.724 C66.927999,24.724 66.7660006,24.6660006 66.65,24.55 C66.5339994,24.4339994 66.476,24.2920008 66.476,24.124 L66.476,22.3 L72.236,22.3 Z M77.504,20.824 C77.8880019,20.0879963 78.3439974,19.5100021 78.872,19.09 C79.4000026,18.6699979 80.0239964,18.46 80.744,18.46 C81.3120028,18.46 81.7679983,18.5839988 82.112,18.832 L81.92,21.052 C81.8799998,21.1960007 81.8220004,21.2979997 81.746,21.358 C81.6699996,21.4180003 81.5680006,21.448 81.44,21.448 C81.3199994,21.448 81.1420012,21.4280002 80.906,21.388 C80.6699988,21.3479998 80.4400011,21.328 80.216,21.328 C79.8879984,21.328 79.5960013,21.3759995 79.34,21.472 C79.0839987,21.5680005 78.854001,21.7059991 78.65,21.886 C78.445999,22.0660009 78.2660008,22.2839987 78.11,22.54 C77.9539992,22.7960013 77.8080007,23.0879984 77.672,23.416 L77.672,31 L74.708,31 L74.708,18.688 L76.448,18.688 C76.7520015,18.688 76.9639994,18.7419995 77.084,18.85 C77.2040006,18.9580005 77.2839998,19.1519986 77.324,19.432 L77.504,20.824 Z M90.008,25.744 C89.1519957,25.7840002 88.4320029,25.8579995 87.848,25.966 C87.2639971,26.0740005 86.7960018,26.2119992 86.444,26.38 C86.0919982,26.5480008 85.8400008,26.7439989 85.688,26.968 C85.5359992,27.1920011 85.46,27.4359987 85.46,27.7 C85.46,28.2200026 85.6139985,28.5919989 85.922,28.816 C86.2300015,29.0400011 86.6319975,29.152 87.128,29.152 C87.736003,29.152 88.2619978,29.0420011 88.706,28.822 C89.1500022,28.6019989 89.5839979,28.2680022 90.008,27.82 L90.008,25.744 Z M83.216,20.404 C84.6320071,19.1079935 86.33599,18.46 88.328,18.46 C89.0480036,18.46 89.6919972,18.5779988 90.26,18.814 C90.8280028,19.0500012 91.307998,19.3779979 91.7,19.798 C92.092002,20.2180021 92.389999,20.7199971 92.594,21.304 C92.798001,21.8880029 92.9,22.5279965 92.9,23.224 L92.9,31 L91.556,31 C91.2759986,31 91.0600008,30.9580004 90.908,30.874 C90.7559992,30.7899996 90.6360004,30.6200013 90.548,30.364 L90.284,29.476 C89.9719984,29.7560014 89.6680015,30.0019989 89.372,30.214 C89.0759985,30.4260011 88.7680016,30.6039993 88.448,30.748 C88.1279984,30.8920007 87.7860018,31.0019996 87.422,31.078 C87.0579982,31.1540004 86.6560022,31.192 86.216,31.192 C85.6959974,31.192 85.2160022,31.1220007 84.776,30.982 C84.3359978,30.8419993 83.9560016,30.6320014 83.636,30.352 C83.3159984,30.0719986 83.0680009,29.7240021 82.892,29.308 C82.7159991,28.8919979 82.628,28.4080028 82.628,27.856 C82.628,27.5439984 82.6799995,27.2340015 82.784,26.926 C82.8880005,26.6179985 83.0579988,26.3240014 83.294,26.044 C83.5300012,25.7639986 83.8359981,25.5000012 84.212,25.252 C84.5880019,25.0039988 85.0499973,24.7880009 85.598,24.604 C86.1460027,24.4199991 86.7839964,24.2700006 87.512,24.154 C88.2400036,24.0379994 89.0719953,23.9680001 90.008,23.944 L90.008,23.224 C90.008,22.3999959 89.8320018,21.790002 89.48,21.394 C89.1279982,20.997998 88.6200033,20.8 87.956,20.8 C87.4759976,20.8 87.0780016,20.8559994 86.762,20.968 C86.4459984,21.0800006 86.1680012,21.2059993 85.928,21.346 C85.6879988,21.4860007 85.470001,21.6119994 85.274,21.724 C85.077999,21.8360006 84.8600012,21.892 84.62,21.892 C84.411999,21.892 84.2360007,21.8380005 84.092,21.73 C83.9479993,21.6219995 83.8320004,21.4960007 83.744,21.352 L83.216,20.404 Z M103.412,21.832 C103.075998,21.423998 102.710002,21.1360008 102.314,20.968 C101.917998,20.7999992 101.492002,20.716 101.036,20.716 C100.587998,20.716 100.184002,20.7999992 99.824,20.968 C99.4639982,21.1360008 99.1560013,21.3899983 98.9,21.73 C98.6439987,22.0700017 98.4480007,22.5019974 98.312,23.026 C98.1759993,23.5500026 98.108,24.1679964 98.108,24.88 C98.108,25.6000036 98.1659994,26.2099975 98.282,26.71 C98.3980006,27.2100025 98.5639989,27.6179984 98.78,27.934 C98.9960011,28.2500016 99.2599984,28.4779993 99.572,28.618 C99.8840016,28.7580007 100.231998,28.828 100.616,28.828 C101.232003,28.828 101.755998,28.7000013 102.188,28.444 C102.620002,28.1879987 103.027998,27.8240024 103.412,27.352 L103.412,21.832 Z M106.376,13.168 L106.376,31 L104.564,31 C104.171998,31 103.924001,30.8200018 103.82,30.46 L103.568,29.272 C103.071998,29.8400028 102.502003,30.2999982 101.858,30.652 C101.213997,31.0040018 100.464004,31.18 99.608,31.18 C98.9359966,31.18 98.3200028,31.0400014 97.76,30.76 C97.1999972,30.4799986 96.718002,30.0740027 96.314,29.542 C95.909998,29.0099973 95.5980011,28.3520039 95.378,27.568 C95.1579989,26.7839961 95.048,25.888005 95.048,24.88 C95.048,23.9679954 95.1719988,23.1200039 95.42,22.336 C95.6680012,21.5519961 96.0239977,20.8720029 96.488,20.296 C96.9520023,19.7199971 97.5079968,19.2700016 98.156,18.946 C98.8040032,18.6219984 99.531996,18.46 100.34,18.46 C101.028003,18.46 101.615998,18.5679989 102.104,18.784 C102.592002,19.0000011 103.027998,19.2919982 103.412,19.66 L103.412,13.168 L106.376,13.168 Z M112.304,13.168 L112.304,31 L109.34,31 L109.34,13.168 L112.304,13.168 Z M123.2,23.428 C123.2,23.0439981 123.146001,22.6820017 123.038,22.342 C122.929999,22.0019983 122.768001,21.7040013 122.552,21.448 C122.335999,21.1919987 122.062002,20.9900007 121.73,20.842 C121.397998,20.6939993 121.012002,20.62 120.572,20.62 C119.715996,20.62 119.042002,20.8639976 118.55,21.352 C118.057998,21.8400024 117.744001,22.5319955 117.608,23.428 L123.2,23.428 Z M117.548,25.216 C117.596,25.8480032 117.707999,26.3939977 117.884,26.854 C118.060001,27.3140023 118.291999,27.6939985 118.58,27.994 C118.868001,28.2940015 119.209998,28.5179993 119.606,28.666 C120.002002,28.8140007 120.439998,28.888 120.92,28.888 C121.400002,28.888 121.813998,28.8320006 122.162,28.72 C122.510002,28.6079994 122.813999,28.4840007 123.074,28.348 C123.334001,28.2119993 123.561999,28.0880006 123.758,27.976 C123.954001,27.8639994 124.143999,27.808 124.328,27.808 C124.576001,27.808 124.759999,27.8999991 124.88,28.084 L125.732,29.164 C125.403998,29.5480019 125.036002,29.8699987 124.628,30.13 C124.219998,30.3900013 123.794002,30.5979992 123.35,30.754 C122.905998,30.9100008 122.454002,31.0199997 121.994,31.084 C121.533998,31.1480003 121.088002,31.18 120.656,31.18 C119.799996,31.18 119.004004,31.0380014 118.268,30.754 C117.531996,30.4699986 116.892003,30.0500028 116.348,29.494 C115.803997,28.9379972 115.376002,28.2500041 115.064,27.43 C114.751998,26.6099959 114.596,25.6600054 114.596,24.58 C114.596,23.7399958 114.731999,22.9500037 115.004,22.21 C115.276001,21.4699963 115.665997,20.8260027 116.174,20.278 C116.682003,19.7299973 117.301996,19.2960016 118.034,18.976 C118.766004,18.6559984 119.591995,18.496 120.512,18.496 C121.288004,18.496 122.003997,18.6199988 122.66,18.868 C123.316003,19.1160012 123.879998,19.4779976 124.352,19.954 C124.824002,20.4300024 125.193999,21.0139965 125.462,21.706 C125.730001,22.3980035 125.864,23.1879956 125.864,24.076 C125.864,24.5240022 125.816,24.8259992 125.72,24.982 C125.624,25.1380008 125.440001,25.216 125.168,25.216 L117.548,25.216 Z M140.768,30.016 C142.256007,30.016 143.381996,29.6940032 144.146,29.05 C144.910004,28.4059968 145.292,27.5000058 145.292,26.332 C145.292,25.7959973 145.190001,25.3140021 144.986,24.886 C144.781999,24.4579979 144.488002,24.0940015 144.104,23.794 C143.719998,23.4939985 143.248003,23.2640008 142.688,23.104 C142.127997,22.9439992 141.492004,22.864 140.78,22.864 L136.508,22.864 L136.508,30.016 L140.768,30.016 Z M136.508,14.992 L136.508,21.964 L140.18,21.964 C140.964004,21.964 141.633997,21.864001 142.19,21.664 C142.746003,21.463999 143.201998,21.2000016 143.558,20.872 C143.914002,20.5439984 144.175999,20.1720021 144.344,19.756 C144.512001,19.3399979 144.596,18.9120022 144.596,18.472 C144.596,17.3279943 144.234004,16.4620029 143.51,15.874 C142.785996,15.2859971 141.668008,14.992 140.156,14.992 L136.508,14.992 Z M140.156,14.02 C141.124005,14.02 141.963996,14.115999 142.676,14.308 C143.388004,14.500001 143.975998,14.7819981 144.44,15.154 C144.904002,15.5260019 145.247999,15.9799973 145.472,16.516 C145.696001,17.0520027 145.808,17.6599966 145.808,18.34 C145.808,18.7880022 145.730001,19.2199979 145.574,19.636 C145.417999,20.0520021 145.194001,20.4359982 144.902,20.788 C144.609999,21.1400018 144.250002,21.4459987 143.822,21.706 C143.393998,21.9660013 142.904003,22.1639993 142.352,22.3 C143.688007,22.492001 144.713996,22.9339965 145.43,23.626 C146.146004,24.3180035 146.504,25.2279944 146.504,26.356 C146.504,27.0760036 146.376001,27.7239971 146.12,28.3 C145.863999,28.8760029 145.492002,29.363998 145.004,29.764 C144.515998,30.164002 143.916004,30.4699989 143.204,30.682 C142.491996,30.8940011 141.684005,31 140.78,31 L135.272,31 L135.272,14.02 L140.156,14.02 Z M158.876,19.06 L158.876,31 L158.24,31 C158.039999,31 157.924,30.896001 157.892,30.688 L157.784,28.912 C157.231997,29.6000034 156.594004,30.1519979 155.87,30.568 C155.145996,30.9840021 154.340004,31.192 153.452,31.192 C152.787997,31.192 152.208002,31.088001 151.712,30.88 C151.215998,30.671999 150.804002,30.372002 150.476,29.98 C150.147998,29.587998 149.900001,29.1160028 149.732,28.564 C149.563999,28.0119972 149.48,27.3880035 149.48,26.692 L149.48,19.06 L150.632,19.06 L150.632,26.692 C150.632,27.8120056 150.887997,28.6899968 151.4,29.326 C151.912003,29.9620032 152.691995,30.28 153.74,30.28 C154.516004,30.28 155.241997,30.082002 155.918,29.686 C156.594003,29.289998 157.195997,28.7400035 157.724,28.036 L157.724,19.06 L158.876,19.06 Z M164.072,19.06 L164.072,31 L162.932,31 L162.932,19.06 L164.072,19.06 Z M164.564,14.944 C164.564,15.0880007 164.534,15.2219994 164.474,15.346 C164.414,15.4700006 164.336,15.5799995 164.24,15.676 C164.144,15.7720005 164.032001,15.8479997 163.904,15.904 C163.775999,15.9600003 163.640001,15.988 163.496,15.988 C163.351999,15.988 163.216001,15.9600003 163.088,15.904 C162.959999,15.8479997 162.848,15.7720005 162.752,15.676 C162.656,15.5799995 162.58,15.4700006 162.524,15.346 C162.468,15.2219994 162.44,15.0880007 162.44,14.944 C162.44,14.7999993 162.468,14.6620007 162.524,14.53 C162.58,14.3979993 162.656,14.2840005 162.752,14.188 C162.848,14.0919995 162.959999,14.0160003 163.088,13.96 C163.216001,13.9039997 163.351999,13.876 163.496,13.876 C163.640001,13.876 163.775999,13.9039997 163.904,13.96 C164.032001,14.0160003 164.144,14.0919995 164.24,14.188 C164.336,14.2840005 164.414,14.3979993 164.474,14.53 C164.534,14.6620007 164.564,14.7999993 164.564,14.944 Z M169.4,13.54 L169.4,31 L168.248,31 L168.248,13.54 L169.4,13.54 Z M181.592,21.628 C181.135998,20.9399966 180.630003,20.4560014 180.074,20.176 C179.517997,19.8959986 178.884004,19.756 178.172,19.756 C177.467996,19.756 176.852003,19.8839987 176.324,20.14 C175.795997,20.3960013 175.354002,20.7579977 174.998,21.226 C174.641998,21.6940023 174.374001,22.2539967 174.194,22.906 C174.013999,23.5580033 173.924,24.2759961 173.924,25.06 C173.924,26.8360089 174.249997,28.1419958 174.902,28.978 C175.554003,29.8140042 176.495994,30.232 177.728,30.232 C178.512004,30.232 179.227997,30.028002 179.876,29.62 C180.524003,29.211998 181.095998,28.6400037 181.592,27.904 L181.592,21.628 Z M182.732,13.54 L182.732,31 L182.108,31 C181.899999,31 181.78,30.896001 181.748,30.688 L181.628,28.804 C181.099997,29.5240036 180.484004,30.0959979 179.78,30.52 C179.075996,30.9440021 178.284004,31.156 177.404,31.156 C175.931993,31.156 174.788004,30.6480051 173.972,29.632 C173.155996,28.6159949 172.748,27.0920102 172.748,25.06 C172.748,24.1879956 172.861999,23.3740038 173.09,22.618 C173.318001,21.8619962 173.651998,21.2060028 174.092,20.65 C174.532002,20.0939972 175.073997,19.6560016 175.718,19.336 C176.362003,19.0159984 177.103996,18.856 177.944,18.856 C178.752004,18.856 179.451997,19.0039985 180.044,19.3 C180.636003,19.5960015 181.151998,20.0359971 181.592,20.62 L181.592,13.54 L182.732,13.54 Z M204.044,15.064 L198.08,15.064 L198.08,31 L196.844,31 L196.844,15.064 L190.844,15.064 L190.844,14.02 L204.044,14.02 L204.044,15.064 Z M208.1,18.868 C208.956004,18.868 209.721997,19.0139985 210.398,19.306 C211.074003,19.5980015 211.643998,20.0119973 212.108,20.548 C212.572002,21.0840027 212.925999,21.7299962 213.17,22.486 C213.414001,23.2420038 213.536,24.0879953 213.536,25.024 C213.536,25.9600047 213.414001,26.8039962 213.17,27.556 C212.925999,28.3080038 212.572002,28.9519973 212.108,29.488 C211.643998,30.0240027 211.074003,30.4359986 210.398,30.724 C209.721997,31.0120014 208.956004,31.156 208.1,31.156 C207.243996,31.156 206.478003,31.0120014 205.802,30.724 C205.125997,30.4359986 204.554002,30.0240027 204.086,29.488 C203.617998,28.9519973 203.262001,28.3080038 203.018,27.556 C202.773999,26.8039962 202.652,25.9600047 202.652,25.024 C202.652,24.0879953 202.773999,23.2420038 203.018,22.486 C203.262001,21.7299962 203.617998,21.0840027 204.086,20.548 C204.554002,20.0119973 205.125997,19.5980015 205.802,19.306 C206.478003,19.0139985 207.243996,18.868 208.1,18.868 Z M208.1,30.256 C208.812004,30.256 209.433997,30.1340012 209.966,29.89 C210.498003,29.6459988 210.941998,29.2960023 211.298,28.84 C211.654002,28.3839977 211.919999,27.8340032 212.096,27.19 C212.272001,26.5459968 212.36,25.824004 212.36,25.024 C212.36,24.231996 212.272001,23.5120032 212.096,22.864 C211.919999,22.2159968 211.654002,21.6620023 211.298,21.202 C210.941998,20.7419977 210.498003,20.3880012 209.966,20.14 C209.433997,19.8919988 208.812004,19.768 208.1,19.768 C207.387996,19.768 206.766003,19.8919988 206.234,20.14 C205.701997,20.3880012 205.258002,20.7419977 204.902,21.202 C204.545998,21.6620023 204.278001,22.2159968 204.098,22.864 C203.917999,23.5120032 203.828,24.231996 203.828,25.024 C203.828,25.824004 203.917999,26.5459968 204.098,27.19 C204.278001,27.8340032 204.545998,28.3839977 204.902,28.84 C205.258002,29.2960023 205.701997,29.6459988 206.234,29.89 C206.766003,30.1340012 207.387996,30.256 208.1,30.256 Z M221.492,18.868 C222.348004,18.868 223.113997,19.0139985 223.79,19.306 C224.466003,19.5980015 225.035998,20.0119973 225.5,20.548 C225.964002,21.0840027 226.317999,21.7299962 226.562,22.486 C226.806001,23.2420038 226.928,24.0879953 226.928,25.024 C226.928,25.9600047 226.806001,26.8039962 226.562,27.556 C226.317999,28.3080038 225.964002,28.9519973 225.5,29.488 C225.035998,30.0240027 224.466003,30.4359986 223.79,30.724 C223.113997,31.0120014 222.348004,31.156 221.492,31.156 C220.635996,31.156 219.870003,31.0120014 219.194,30.724 C218.517997,30.4359986 217.946002,30.0240027 217.478,29.488 C217.009998,28.9519973 216.654001,28.3080038 216.41,27.556 C216.165999,26.8039962 216.044,25.9600047 216.044,25.024 C216.044,24.0879953 216.165999,23.2420038 216.41,22.486 C216.654001,21.7299962 217.009998,21.0840027 217.478,20.548 C217.946002,20.0119973 218.517997,19.5980015 219.194,19.306 C219.870003,19.0139985 220.635996,18.868 221.492,18.868 Z M221.492,30.256 C222.204004,30.256 222.825997,30.1340012 223.358,29.89 C223.890003,29.6459988 224.333998,29.2960023 224.69,28.84 C225.046002,28.3839977 225.311999,27.8340032 225.488,27.19 C225.664001,26.5459968 225.752,25.824004 225.752,25.024 C225.752,24.231996 225.664001,23.5120032 225.488,22.864 C225.311999,22.2159968 225.046002,21.6620023 224.69,21.202 C224.333998,20.7419977 223.890003,20.3880012 223.358,20.14 C222.825997,19.8919988 222.204004,19.768 221.492,19.768 C220.779996,19.768 220.158003,19.8919988 219.626,20.14 C219.093997,20.3880012 218.650002,20.7419977 218.294,21.202 C217.937998,21.6620023 217.670001,22.2159968 217.49,22.864 C217.309999,23.5120032 217.22,24.231996 217.22,25.024 C217.22,25.824004 217.309999,26.5459968 217.49,27.19 C217.670001,27.8340032 217.937998,28.3839977 218.294,28.84 C218.650002,29.2960023 219.093997,29.6459988 219.626,29.89 C220.158003,30.1340012 220.779996,30.256 221.492,30.256 Z M231.416,13.54 L231.416,31 L230.264,31 L230.264,13.54 L231.416,13.54 Z" id="Gradle-Build-Tool" fill="#02303A"></path>
        </g>
    </g>
</svg>